<?xml version="1.0" standalone="no"?>
<!DOCTYPE svg PUBLIC "-//W3C//DTD SVG 20010904//EN"
 "http://www.w3.org/TR/2001/REC-SVG-20010904/DTD/svg10.dtd">
<svg version="1.0" xmlns="http://www.w3.org/2000/svg"
 width="336.000000pt" height="287.000000pt" viewBox="0 0 336.000000 287.000000"
 preserveAspectRatio="xMidYMid meet">
<metadata>
Created by potrace 1.16, written by Peter Selinger 2001-2019
</metadata>
<g transform="translate(0.000000,287.000000) scale(0.100000,-0.100000)"
fill="#000000" stroke="none">
<path d="M1650 2500 l0 -120 -260 0 -260 0 0 -120 0 -120 -130 0 -130 0 0
-120 0 -120 -61 0 -61 0 4 -127 c4 -106 10 -142 33 -212 70 -207 222 -350 430
-407 80 -22 338 -30 447 -15 395 56 701 270 860 602 l32 66 63 6 c119 12 196
61 247 162 24 47 24 51 8 64 -46 36 -98 51 -184 51 l-86 0 -18 53 c-13 39 -34
68 -85 120 -44 44 -75 67 -86 65 -10 -2 -32 -32 -51 -69 -45 -87 -54 -197 -24
-276 l20 -52 -32 -10 c-17 -6 -48 -13 -68 -17 l-38 -6 0 121 0 121 -130 0
-130 0 0 240 0 240 -155 0 -155 0 0 -120z m260 -25 l0 -95 -105 0 -105 0 0 95
0 95 105 0 105 0 0 -95z m-520 -240 l0 -95 -105 0 -105 0 0 95 0 95 105 0 105
0 0 -95z m260 0 l0 -95 -105 0 -105 0 0 95 0 95 105 0 105 0 0 -95z m260 0 l0
-95 -105 0 -105 0 0 95 0 95 105 0 105 0 0 -95z m565 -16 c47 -52 74 -113 75
-163 0 -47 -69 -182 -164 -321 -73 -108 -227 -266 -315 -325 -135 -90 -303
-152 -449 -166 -99 -8 -104 -13 -48 -39 l49 -24 -38 -7 c-58 -10 -282 3 -349
21 -32 9 -81 27 -110 39 -53 24 -156 95 -156 109 0 4 31 7 68 7 75 0 162 20
235 53 43 20 47 24 35 39 -12 17 -17 16 -78 -9 -36 -14 -98 -31 -139 -37 l-74
-10 -34 39 c-64 75 -120 222 -138 368 l-7 57 709 0 c758 0 785 2 853 50 l28
20 -26 48 c-36 63 -38 172 -5 245 12 26 26 47 31 47 5 0 26 -19 47 -41z
m-1345 -224 l0 -95 -105 0 -105 0 0 95 0 95 105 0 105 0 0 -95z m260 0 l0 -95
-105 0 -105 0 0 95 0 95 105 0 105 0 0 -95z m260 0 l0 -95 -105 0 -105 0 0 95
0 95 105 0 105 0 0 -95z m260 0 l0 -95 -105 0 -105 0 0 95 0 95 105 0 105 0 0
-95z m260 0 l0 -95 -105 0 -105 0 0 95 0 95 105 0 105 0 0 -95z"/>
<path d="M656 928 c-12 -17 -16 -48 -16 -125 l0 -103 -25 16 c-34 22 -151 30
-200 14 -48 -16 -110 -72 -138 -124 -27 -52 -29 -165 -4 -212 51 -98 118 -138
228 -139 67 0 81 3 125 30 33 21 60 48 82 85 l32 54 0 251 c0 182 -3 254 -12
263 -19 19 -55 14 -72 -10z m-98 -302 c49 -26 75 -62 80 -114 13 -143 -152
-215 -247 -107 -43 49 -49 94 -20 152 37 73 120 104 187 69z"/>
<path d="M1772 938 c-17 -17 -17 -659 0 -676 18 -18 53 -15 71 6 13 14 17 38
17 103 0 75 2 86 21 97 18 12 24 12 34 0 7 -7 54 -59 104 -115 93 -104 120
-120 149 -91 29 29 13 63 -83 170 l-94 106 94 62 c81 53 95 67 95 89 0 33 -17
51 -47 51 -12 0 -78 -36 -145 -80 l-123 -79 -3 166 c-2 138 -5 170 -19 185
-18 21 -53 24 -71 6z"/>
<path d="M930 727 c-49 -16 -123 -93 -138 -143 -17 -60 -15 -142 7 -190 102
-224 439 -170 468 75 12 104 -53 215 -149 256 -43 17 -136 18 -188 2z m171
-111 c74 -51 87 -144 28 -211 -89 -101 -249 -43 -249 92 0 111 130 181 221
119z"/>
<path d="M1445 721 c-46 -21 -98 -69 -123 -115 -24 -44 -23 -169 2 -216 41
-79 110 -127 196 -137 97 -11 200 39 200 98 0 22 -7 32 -25 41 -21 9 -32 7
-74 -15 -58 -32 -82 -33 -136 -7 -46 22 -85 80 -85 127 0 40 31 94 70 121 43
29 99 29 157 -2 61 -33 88 -24 88 30 0 37 -3 40 -54 67 -67 33 -154 37 -216 8z"/>
<path d="M2360 725 c-148 -66 -193 -263 -89 -388 49 -59 101 -81 189 -82 64 0
82 4 123 28 42 25 47 32 47 63 0 53 -32 63 -95 30 -26 -14 -59 -26 -72 -26
-39 0 -87 25 -117 61 l-29 34 189 5 189 5 0 67 c0 58 -4 72 -30 109 -17 24
-50 57 -74 74 -37 26 -52 30 -119 33 -53 1 -88 -3 -112 -13z m153 -96 c27 -14
77 -60 77 -71 0 -4 -58 -8 -130 -8 -71 0 -130 4 -130 9 0 15 34 50 65 66 35
18 88 19 118 4z"/>
<path d="M2740 721 c-6 -12 -10 -104 -10 -229 0 -190 2 -210 18 -225 22 -20
55 -22 70 -5 5 7 12 71 14 143 3 114 6 134 26 166 32 53 76 71 164 67 71 -3
72 -3 82 25 8 23 6 31 -12 50 -33 32 -160 37 -216 8 -39 -20 -39 -20 -53 -1
-19 26 -69 27 -83 1z"/>
</g>
</svg>
