<?xml version="1.0" standalone="no"?>
<!DOCTYPE svg PUBLIC "-//W3C//DTD SVG 20010904//EN"
 "http://www.w3.org/TR/2001/REC-SVG-20010904/DTD/svg10.dtd">
<svg version="1.0" xmlns="http://www.w3.org/2000/svg"
 width="200.000000pt" height="219.000000pt" viewBox="0 0 200.000000 219.000000"
 preserveAspectRatio="xMidYMid meet">
<metadata>
Created by potrace 1.16, written by Peter Selinger 2001-2019
</metadata>
<g transform="translate(0.000000,219.000000) scale(0.100000,-0.100000)"
fill="#000000" stroke="none">
<path d="M1459 2076 c-17 -9 -44 -12 -74 -8 -46 5 -149 -13 -172 -30 -6 -5
-17 -41 -24 -79 l-13 -71 32 -29 c17 -16 36 -29 41 -29 21 0 10 -18 -18 -30
-41 -17 -65 -66 -59 -123 l5 -46 -26 11 c-42 17 -219 14 -271 -4 -78 -28 -131
-62 -176 -112 -59 -65 -85 -126 -91 -213 -8 -109 2 -155 52 -227 24 -35 41
-67 37 -72 -4 -4 -2 -4 4 -1 27 15 115 -127 109 -175 -16 -124 -288 -199 -365
-100 -29 36 -24 119 10 183 54 103 53 99 43 145 l-10 44 48 28 49 27 0 68 0
68 -47 21 c-50 21 -125 27 -146 10 -7 -5 -33 -15 -59 -22 -96 -26 -143 -111
-103 -186 11 -20 26 -34 37 -34 11 0 16 -5 13 -11 -4 -6 -1 -9 6 -8 30 5 94
-28 107 -55 8 -16 11 -17 11 -4 2 31 -49 78 -95 89 -25 7 -51 21 -59 32 -19
27 -19 77 -1 102 13 18 15 17 21 -20 3 -22 7 -47 8 -55 1 -8 25 -30 52 -48 38
-25 57 -32 80 -28 71 13 70 14 73 -27 3 -30 -6 -57 -38 -118 -51 -97 -60 -160
-31 -206 57 -90 224 -96 340 -13 103 75 97 166 -19 306 -22 27 -54 76 -70 108
-71 141 -17 332 120 424 69 47 133 64 235 64 136 -1 233 -40 328 -131 73 -69
91 -110 91 -206 1 -105 -32 -176 -117 -255 -128 -117 -174 -167 -185 -200 -9
-28 -9 -32 1 -19 41 52 60 71 133 131 100 83 136 123 171 191 24 45 28 63 28
142 0 81 -3 95 -30 143 -36 66 -121 145 -191 180 -44 21 -53 31 -59 59 -12 65
55 153 107 139 46 -12 52 -22 29 -45 -25 -25 -36 -64 -24 -86 8 -13 10 -10 10
14 0 34 39 85 59 77 12 -5 137 24 187 43 15 6 27 15 27 20 0 6 11 27 25 47 34
50 33 98 -5 157 -41 65 -94 83 -151 53z m18 -73 c97 -52 97 -54 -23 -69 -53
-6 -58 -5 -134 42 -44 26 -77 51 -73 55 7 7 33 10 121 17 12 1 61 -19 109 -45z
m-164 -43 l77 -45 -6 -60 c-4 -33 -8 -62 -10 -64 -2 -2 -39 18 -84 44 l-80 47
0 48 c0 51 8 83 19 78 4 -2 42 -23 84 -48z m-743 -735 l0 -45 -80 -40 -80 -40
0 53 0 54 73 31 c39 17 75 31 80 32 4 0 7 -20 7 -45z"/>
<path d="M1320 1638 c0 -4 37 -51 82 -105 168 -202 188 -332 78 -502 -52 -81
-246 -281 -272 -281 -22 0 -78 -52 -78 -72 0 -8 6 -22 13 -33 13 -16 14 -15 9
14 -13 88 109 96 215 15 115 -88 88 -271 -49 -323 -18 -7 -37 -3 -78 15 -65
27 -84 29 -139 9 -40 -14 -42 -14 -74 15 -18 16 -46 53 -62 82 -25 44 -30 65
-30 123 0 46 6 81 17 103 9 17 14 32 12 32 -18 0 -59 -40 -71 -68 -13 -30 -12
-45 8 -138 27 -126 21 -163 -32 -206 -74 -59 -193 -45 -318 39 -35 24 -66 43
-68 43 -9 0 54 -54 97 -83 25 -17 48 -35 52 -41 4 -6 8 -8 8 -4 0 4 19 -1 43
-11 78 -33 196 0 245 70 9 13 19 40 22 61 l5 37 38 -35 c32 -30 36 -37 26 -55
-19 -37 6 -113 49 -146 21 -15 39 -31 40 -35 2 -4 9 -8 15 -8 6 0 34 -16 63
-36 l53 -36 51 31 c27 17 54 31 58 31 26 2 51 41 57 91 l7 55 -46 24 -46 23
47 31 c30 20 54 46 67 73 19 38 25 42 61 44 22 1 48 1 58 0 9 -1 17 3 17 10 0
6 8 9 20 6 11 -3 20 -2 20 2 0 4 16 13 36 20 51 18 114 78 137 130 14 33 20
72 23 147 l3 102 -32 13 c-18 7 -49 26 -70 43 -29 23 -50 31 -96 34 -73 5
-123 -17 -160 -69 -14 -21 -32 -38 -39 -39 -10 0 -12 -18 -10 -72 l3 -71 45
-24 c25 -12 51 -28 58 -34 17 -14 108 -5 130 13 13 11 14 11 10 -1 -11 -35
-73 -71 -136 -79 -34 -5 -62 -6 -62 -2 0 3 -16 25 -36 49 -38 43 -118 91 -154
91 -12 0 -18 5 -15 10 4 6 12 7 18 4 7 -4 9 -4 5 0 -3 4 26 36 66 71 140 122
216 225 242 329 15 61 15 70 -1 136 -22 89 -68 160 -174 265 -45 44 -81 77
-81 73z m348 -682 c66 -34 102 -104 102 -196 0 -66 -19 -121 -53 -158 -28 -30
-108 -71 -172 -88 -79 -22 -85 -20 -85 25 l0 38 49 6 c112 13 173 72 179 172
3 50 0 66 -20 95 -13 19 -40 43 -60 53 -34 17 -40 17 -83 3 -71 -25 -89 -20
-62 14 39 50 144 68 205 36z m-402 -622 l99 -46 -58 -29 -57 -29 -100 50 c-55
28 -100 54 -100 58 0 8 81 39 106 41 6 1 56 -20 110 -45z m-103 -80 c37 -19
70 -41 73 -48 3 -8 4 -32 2 -54 l-3 -41 -97 65 c-87 57 -98 67 -98 93 0 16 -3
37 -7 47 -6 16 -2 15 28 -4 19 -13 65 -39 102 -58z"/>
<path d="M389 987 c-1 -4 -2 -10 -3 -14 -1 -5 -14 -30 -30 -56 -42 -71 -55
-114 -56 -185 0 -75 17 -112 65 -145 l35 -24 -46 -18 c-96 -36 -130 -134 -78
-222 36 -62 111 -85 147 -45 26 29 20 57 -18 86 -56 43 -39 94 23 67 25 -11
26 -10 8 4 -39 30 -86 16 -86 -26 0 -20 9 -35 30 -51 37 -27 37 -61 1 -66 -35
-5 -66 15 -91 60 -20 35 -21 45 -11 77 14 48 59 90 102 97 26 4 48 -2 92 -25
31 -17 82 -44 113 -61 89 -47 203 -38 234 19 13 26 13 85 -1 171 -11 66 -11
71 11 104 13 18 35 41 49 50 14 8 21 16 15 16 -6 0 -30 -17 -54 -37 -35 -32
-43 -46 -47 -84 -5 -41 -9 -48 -42 -64 -61 -30 -132 -45 -211 -45 -87 0 -138
20 -185 69 -28 30 -30 37 -30 109 1 69 5 86 39 155 21 43 36 80 32 84 -3 3 -7
3 -7 0z m405 -419 c7 -41 0 -98 -14 -112 -6 -6 -41 -11 -78 -11 -61 0 -74 4
-145 44 -42 25 -76 45 -74 47 1 1 23 -1 50 -5 26 -5 47 -5 47 -1 0 4 15 8 33
9 54 3 57 4 57 13 0 4 8 8 18 8 9 1 33 9 52 20 46 25 47 25 54 -12z"/>
<path d="M1052 660 c-24 -50 -28 -109 -11 -143 22 -42 73 -87 111 -97 44 -12
79 -6 133 25 94 54 92 157 -5 223 -45 30 -66 29 -65 -5 0 -20 -6 -29 -25 -34
l-25 -7 26 -1 c15 -1 29 5 33 14 5 13 12 12 48 -7 51 -26 58 -34 58 -70 0 -35
-14 -42 -69 -39 -56 3 -110 30 -145 71 -24 29 -29 40 -39 95 -3 16 -9 10 -25
-25z m24 -48 c6 -28 71 -102 90 -102 8 0 14 -5 14 -11 0 -5 4 -8 8 -5 5 3 27
0 51 -6 48 -12 43 -25 -15 -38 -109 -25 -204 74 -173 182 9 30 14 37 16 23 2
-11 6 -30 9 -43z"/>
</g>
</svg>
